<svg xmlns="http://www.w3.org/2000/svg" width="780" height="412" viewBox="0 0 780 412">
<rect width="100%" height="100%" fill="white"/>
<text x="22" y="32" font-size="17" font-family="Arial" font-weight="bold">Validation permutation importance: Solar_Heat_Input_W</text>
<text x="260" y="398" font-size="11" font-family="Arial">Increase in validation MAE when feature is shuffled (target units)</text>
<text x="250" y="88" text-anchor="end" font-size="11" font-family="Arial">Window_Area_m2</text>
<rect x="260" y="75" width="0.2" height="15" fill="#3279a8"/>
<text x="265.2" y="88" font-size="10" font-family="Arial">3.754</text>
<text x="250" y="113" text-anchor="end" font-size="11" font-family="Arial">Opening_Area_m2</text>
<rect x="260" y="100" width="0.2" height="15" fill="#3279a8"/>
<text x="265.2" y="113" font-size="10" font-family="Arial">4.064</text>
<text x="250" y="138" text-anchor="end" font-size="11" font-family="Arial">Specific_Heat_J_kgK</text>
<rect x="260" y="125" width="1.6" height="15" fill="#3279a8"/>
<text x="266.6" y="138" font-size="10" font-family="Arial">27.12</text>
<text x="250" y="163" text-anchor="end" font-size="11" font-family="Arial">Material</text>
<rect x="260" y="150" width="4.8" height="15" fill="#3279a8"/>
<text x="269.8" y="163" font-size="10" font-family="Arial">81.73</text>
<text x="250" y="188" text-anchor="end" font-size="11" font-family="Arial">Material_Category</text>
<rect x="260" y="175" width="6.5" height="15" fill="#3279a8"/>
<text x="271.5" y="188" font-size="10" font-family="Arial">111.2</text>
<text x="250" y="213" text-anchor="end" font-size="11" font-family="Arial">Density_kg_m3</text>
<rect x="260" y="200" width="14.6" height="15" fill="#3279a8"/>
<text x="279.6" y="213" font-size="10" font-family="Arial">250.3</text>
<text x="250" y="238" text-anchor="end" font-size="11" font-family="Arial">Shelter_Width_m</text>
<rect x="260" y="225" width="33.5" height="15" fill="#3279a8"/>
<text x="298.5" y="238" font-size="10" font-family="Arial">574.9</text>
<text x="250" y="263" text-anchor="end" font-size="11" font-family="Arial">Thermal_Conductivity_W_mK</text>
<rect x="260" y="250" width="34.0" height="15" fill="#3279a8"/>
<text x="299.0" y="263" font-size="10" font-family="Arial">584.8</text>
<text x="250" y="288" text-anchor="end" font-size="11" font-family="Arial">Shelter_Height_m</text>
<rect x="260" y="275" width="48.2" height="15" fill="#3279a8"/>
<text x="313.2" y="288" font-size="10" font-family="Arial">828.8</text>
<text x="250" y="313" text-anchor="end" font-size="11" font-family="Arial">Shelter_Length_m</text>
<rect x="260" y="300" width="48.4" height="15" fill="#3279a8"/>
<text x="313.4" y="313" font-size="10" font-family="Arial">831.3</text>
<text x="250" y="338" text-anchor="end" font-size="11" font-family="Arial">Solar_Radiation_W_m2</text>
<rect x="260" y="325" width="203.3" height="15" fill="#3279a8"/>
<text x="468.3" y="338" font-size="10" font-family="Arial">3494</text>
<text x="250" y="363" text-anchor="end" font-size="11" font-family="Arial">Orientation_deg</text>
<rect x="260" y="350" width="495.0" height="15" fill="#3279a8"/>
<text x="760.0" y="363" font-size="10" font-family="Arial">8505</text>
</svg>